<svg width="64" height="64" viewBox="0 0 64 64" fill="none" xmlns="http://www.w3.org/2000/svg">
<circle cx="32" cy="32" r="31.5" stroke="#6F6DB6"/>
<circle cx="32" cy="32" r="28" fill="#CDCBFF"/>
<g clip-path="url(#clip0_2026_6620)">
<path fill-rule="evenodd" clip-rule="evenodd" d="M18.6665 32.0001H21.6294V42.3705C21.6294 43.1563 21.9416 43.9099 22.4972 44.4656C23.0529 45.0212 23.8065 45.3334 24.5924 45.3334H39.4072C40.193 45.3334 40.9466 45.0212 41.5023 44.4656C42.058 43.9099 42.3701 43.1563 42.3701 42.3705V32.0001H42.3702H45.3332L31.9998 18.6667L18.6665 32.0001Z" fill="white"/>
<path d="M21.6294 32.0001H22.6294C22.6294 31.4478 22.1817 31.0001 21.6294 31.0001V32.0001ZM18.6665 32.0001L17.9594 31.293C17.6734 31.579 17.5878 32.0091 17.7426 32.3828C17.8974 32.7564 18.262 33.0001 18.6665 33.0001V32.0001ZM22.4972 44.4656L23.2043 43.7585L22.4972 44.4656ZM41.5023 44.4656L40.7952 43.7585L40.7952 43.7585L41.5023 44.4656ZM42.3701 32.0001V31.0001C41.8179 31.0001 41.3701 31.4478 41.3701 32.0001H42.3701ZM45.3332 32.0001V33.0001C45.7376 33.0001 46.1023 32.7564 46.2571 32.3828C46.4118 32.0091 46.3263 31.579 46.0403 31.293L45.3332 32.0001ZM31.9998 18.6667L32.7069 17.9596C32.3164 17.5691 31.6833 17.5691 31.2927 17.9596L31.9998 18.6667ZM21.6294 31.0001H18.6665V33.0001H21.6294V31.0001ZM20.6294 32.0001V42.3705H22.6294V32.0001H20.6294ZM20.6294 42.3705C20.6294 43.4215 21.0469 44.4295 21.7901 45.1727L23.2043 43.7585C22.8362 43.3903 22.6294 42.8911 22.6294 42.3705H20.6294ZM21.7901 45.1727C22.5333 45.9159 23.5413 46.3334 24.5924 46.3334V44.3334C24.0717 44.3334 23.5725 44.1266 23.2043 43.7585L21.7901 45.1727ZM24.5924 46.3334H39.4072V44.3334H24.5924V46.3334ZM39.4072 46.3334C40.4582 46.3334 41.4662 45.9159 42.2094 45.1727L40.7952 43.7585C40.4271 44.1266 39.9278 44.3334 39.4072 44.3334V46.3334ZM42.2094 45.1727C42.9526 44.4295 43.3701 43.4215 43.3701 42.3705H41.3701C41.3701 42.8911 41.1633 43.3903 40.7952 43.7585L42.2094 45.1727ZM43.3701 42.3705V32.0001H41.3701V42.3705H43.3701ZM42.3702 31.0001H42.3701V33.0001H42.3702V31.0001ZM45.3332 31.0001H42.3702V33.0001H45.3332V31.0001ZM31.2927 19.3739L44.6261 32.7072L46.0403 31.293L32.7069 17.9596L31.2927 19.3739ZM19.3736 32.7072L32.7069 19.3739L31.2927 17.9596L17.9594 31.293L19.3736 32.7072Z" fill="white"/>
<path d="M28 34.0002L30.6667 36.6668L36 31.3335" stroke="#6F6DB6" stroke-width="2" stroke-linecap="round" stroke-linejoin="round"/>
</g>
<rect x="40" y="40" width="24" height="24" rx="12" fill="#6F6DB6"/>
<path d="M53.0392 58L47.2754 53.6195V52.2362H51.3638C51.8249 52.2362 52.2245 52.1491 52.5627 51.9749C52.9008 51.8007 53.1621 51.5497 53.3466 51.2218C53.531 50.8939 53.6232 50.5148 53.6232 50.0844C53.6232 49.6438 53.531 49.2647 53.3466 48.947C53.1621 48.6191 52.9008 48.3681 52.5627 48.1939C52.2245 48.0197 51.8249 47.9326 51.3638 47.9326H47.2754V46.5493H56.067V47.6406H53.5464L53.9152 47.3486C54.2944 47.6662 54.5915 48.0556 54.8067 48.5167C55.0321 48.9778 55.1448 49.5004 55.1448 50.0844C55.1448 50.8017 54.9809 51.4267 54.653 51.9596C54.3354 52.4821 53.8896 52.892 53.3158 53.1892C52.7522 53.4761 52.0862 53.6195 51.3177 53.6195H48.9661L49.1044 53.2045L55.3139 58H53.0392ZM47.2754 50.6224V49.5311H56.067V50.6224H47.2754Z" fill="white"/>
<defs>
<clipPath id="clip0_2026_6620">
<rect width="32" height="32" fill="white" transform="translate(16 16)"/>
</clipPath>
</defs>
</svg>
