<svg width="64" height="64" viewBox="0 0 64 64" fill="none" xmlns="http://www.w3.org/2000/svg">
<circle cx="32" cy="32" r="31.5" fill="white" stroke="#30428E"/>
<circle cx="32" cy="32" r="28" fill="#B8D6FF"/>
<rect x="40" y="40" width="24" height="24" rx="12" fill="#30428E"/>
<path d="M53.7067 58L48.1855 53.8039V52.4788H52.1019C52.5436 52.4788 52.9264 52.3954 53.2503 52.2285C53.5742 52.0617 53.8245 51.8212 54.0012 51.5071C54.1779 51.193 54.2662 50.8298 54.2662 50.4176C54.2662 49.9955 54.1779 49.6323 54.0012 49.3281C53.8245 49.014 53.5742 48.7735 53.2503 48.6066C52.9264 48.4398 52.5436 48.3563 52.1019 48.3563H48.1855V47.0312H56.6072V48.0766H54.1926L54.5459 47.7969C54.9091 48.1011 55.1938 48.4741 55.3999 48.9158C55.6158 49.3575 55.7238 49.8581 55.7238 50.4176C55.7238 51.1047 55.5668 51.7034 55.2527 52.2138C54.9484 52.7144 54.5214 53.107 53.9717 53.3917C53.4319 53.6665 52.7939 53.8039 52.0577 53.8039H49.8051L49.9376 53.4064L55.8858 58H53.7067ZM48.1855 50.9329V49.8875H56.6072V50.9329H48.1855Z" fill="white"/>
<path d="M30.6665 24H43.9998" stroke="white" stroke-width="2" stroke-linecap="round"/>
<path d="M30.6665 32H43.9998" stroke="white" stroke-width="2" stroke-linecap="round"/>
<path d="M30.6665 40H43.9998" stroke="white" stroke-width="2" stroke-linecap="round"/>
<path d="M20 25.8571C20 25.8571 21.3333 26.7261 22 27.9999C22 27.9999 24 22.9999 26.6667 21.3333" stroke="#30428E" stroke-width="2" stroke-linecap="round" stroke-linejoin="round"/>
<path d="M20 40.5239C20 40.5239 21.3333 41.3929 22 42.6667C22 42.6667 24 37.6667 26.6667 36" stroke="white" stroke-width="2" stroke-linecap="round" stroke-linejoin="round"/>
</svg>
