<svg width="64" height="64" viewBox="0 0 64 64" fill="none" xmlns="http://www.w3.org/2000/svg">
<circle cx="32" cy="32" r="31.5" fill="white" stroke="#386B4A"/>
<circle cx="32" cy="32" r="28" fill="#C8EDCC"/>
<rect x="40" y="40" width="24" height="24" rx="12" fill="#386B4A"/>
<path d="M52.0002 45.3335C48.3202 45.3335 45.3335 48.3202 45.3335 52.0002C45.3335 55.6802 48.3202 58.6668 52.0002 58.6668C55.6802 58.6668 58.6668 55.6802 58.6668 52.0002C58.6668 48.3202 55.6802 45.3335 52.0002 45.3335ZM49.8202 49.1068C50.3602 49.1068 50.8068 49.5468 50.8068 50.0935C50.8068 50.6335 50.3668 51.0802 49.8202 51.0802C49.2802 51.0802 48.8335 50.6402 48.8335 50.0935C48.8335 49.5468 49.2735 49.1068 49.8202 49.1068ZM49.9002 54.5335C49.8002 54.6335 49.6735 54.6802 49.5468 54.6802C49.4202 54.6802 49.2935 54.6335 49.1935 54.5335C49.0002 54.3402 49.0002 54.0202 49.1935 53.8268L53.5602 49.4602C53.7535 49.2668 54.0735 49.2668 54.2668 49.4602C54.4602 49.6535 54.4602 49.9735 54.2668 50.1668L49.9002 54.5335ZM54.1802 54.8935C53.6402 54.8935 53.1935 54.4535 53.1935 53.9068C53.1935 53.3668 53.6335 52.9202 54.1802 52.9202C54.7202 52.9202 55.1668 53.3602 55.1668 53.9068C55.1668 54.4535 54.7268 54.8935 54.1802 54.8935Z" fill="white"/>
<g clip-path="url(#clip0_2026_6586)">
<g filter="url(#filter0_d_2026_6586)">
<path d="M22.6665 44V22.6667C22.6665 21.9594 22.9475 21.2811 23.4476 20.781C23.9476 20.281 24.6259 20 25.3332 20H38.6665C39.3737 20 40.052 20.281 40.5521 20.781C41.0522 21.2811 41.3332 21.9594 41.3332 22.6667V44L37.3332 41.3333L34.6665 44L31.9998 41.3333L29.3332 44L26.6665 41.3333L22.6665 44Z" fill="white"/>
<path d="M22.6665 44V22.6667C22.6665 21.9594 22.9475 21.2811 23.4476 20.781C23.9476 20.281 24.6259 20 25.3332 20H38.6665C39.3737 20 40.052 20.281 40.5521 20.781C41.0522 21.2811 41.3332 21.9594 41.3332 22.6667V44L37.3332 41.3333L34.6665 44L31.9998 41.3333L29.3332 44L26.6665 41.3333L22.6665 44Z" stroke="white" stroke-width="2" stroke-linecap="round" stroke-linejoin="round"/>
</g>
</g>
<path d="M33.0396 38L27.2759 33.6195V32.2362H31.3643C31.8254 32.2362 32.225 32.1491 32.5632 31.9749C32.9013 31.8007 33.1626 31.5497 33.347 31.2218C33.5315 30.8939 33.6237 30.5148 33.6237 30.0844C33.6237 29.6438 33.5315 29.2647 33.347 28.947C33.1626 28.6191 32.9013 28.3681 32.5632 28.1939C32.225 28.0197 31.8254 27.9326 31.3643 27.9326H27.2759V26.5493H36.0675V27.6406H33.5469L33.9157 27.3486C34.2949 27.6662 34.592 28.0556 34.8072 28.5167C35.0326 28.9778 35.1453 29.5004 35.1453 30.0844C35.1453 30.8017 34.9814 31.4267 34.6535 31.9596C34.3358 32.4821 33.8901 32.892 33.3163 33.1892C32.7527 33.4761 32.0867 33.6195 31.3182 33.6195H28.9666L29.1049 33.2045L35.3144 38H33.0396ZM27.2759 30.6224V29.5311H36.0675V30.6224H27.2759Z" fill="#386B4A"/>
<defs>
<filter id="filter0_d_2026_6586" x="19.6665" y="17" width="28.6665" height="34" filterUnits="userSpaceOnUse" color-interpolation-filters="sRGB">
<feFlood flood-opacity="0" result="BackgroundImageFix"/>
<feColorMatrix in="SourceAlpha" type="matrix" values="0 0 0 0 0 0 0 0 0 0 0 0 0 0 0 0 0 0 127 0" result="hardAlpha"/>
<feOffset dx="2" dy="2"/>
<feGaussianBlur stdDeviation="2"/>
<feComposite in2="hardAlpha" operator="out"/>
<feColorMatrix type="matrix" values="0 0 0 0 0.439216 0 0 0 0 0.396078 0 0 0 0 0.941176 0 0 0 0.1 0"/>
<feBlend mode="normal" in2="BackgroundImageFix" result="effect1_dropShadow_2026_6586"/>
<feBlend mode="normal" in="SourceGraphic" in2="effect1_dropShadow_2026_6586" result="shape"/>
</filter>
<clipPath id="clip0_2026_6586">
<rect width="32" height="32" fill="white" transform="translate(16 16)"/>
</clipPath>
</defs>
</svg>
