<svg width="64" height="64" viewBox="0 0 64 64" fill="none" xmlns="http://www.w3.org/2000/svg">
<circle cx="32" cy="32" r="31.5" fill="white" stroke="#6F6DB6"/>
<circle cx="32" cy="32" r="28" fill="#CDCBFF"/>
<rect x="40" y="40" width="24" height="24" rx="12" fill="#6F6DB6"/>
<path d="M52 58.6667C51.4545 58.6667 50.9335 58.4466 49.8913 58.0064C47.2971 56.9105 46 56.3626 46 55.4409C46 55.1829 46 50.7097 46 48.6667M52 58.6667C52.5455 58.6667 53.0665 58.4466 54.1087 58.0064C56.7029 56.9105 58 56.3626 58 55.4409V48.6667M52 58.6667V51.5699" stroke="white" stroke-linecap="round" stroke-linejoin="round"/>
<path d="M49.5506 50.4608L47.6031 49.5185C46.5344 49.0013 46 48.7427 46 48.3333C46 47.9238 46.5344 47.6652 47.6031 47.148L49.5506 46.2057C50.7525 45.6241 51.3535 45.3333 52 45.3333C52.6465 45.3333 53.2475 45.6241 54.4494 46.2057L56.3969 47.148C57.4656 47.6652 58 47.9238 58 48.3333C58 48.7427 57.4656 49.0013 56.3969 49.5185L54.4494 50.4608C53.2475 51.0425 52.6465 51.3333 52 51.3333C51.3535 51.3333 50.7525 51.0425 49.5506 50.4608Z" stroke="white" stroke-linecap="round" stroke-linejoin="round"/>
<path d="M48 52L49.3333 52.6667" stroke="white" stroke-linecap="round" stroke-linejoin="round"/>
<path d="M55.3332 46.6667L48.6665 50.0001" stroke="white" stroke-linecap="round" stroke-linejoin="round"/>
<path d="M38.6667 42.6666C40.1394 42.6666 41.3333 41.4727 41.3333 39.9999C41.3333 38.5272 40.1394 37.3333 38.6667 37.3333C37.1939 37.3333 36 38.5272 36 39.9999C36 41.4727 37.1939 42.6666 38.6667 42.6666Z" stroke="white" stroke-width="2"/>
<path d="M30.6665 38.6666H35.9998M33.9998 25.3333H35.257C37.0042 25.3333 37.878 25.3333 38.6186 25.7526C39.3593 26.172 39.8532 26.9462 40.8409 28.4947C41.5334 29.5805 42.2605 30.3686 43.2828 31.0698C44.312 31.7757 44.8014 32.1207 45.073 32.6746C45.3332 33.205 45.3332 33.8333 45.3332 35.0897C45.3332 36.7461 45.3332 37.5743 44.8678 38.1006C44.8478 38.1233 44.8274 38.1453 44.8064 38.1666C44.3165 38.6666 43.5457 38.6666 42.0038 38.6666H41.3332" stroke="white" stroke-width="2" stroke-linecap="round" stroke-linejoin="round"/>
<path d="M33.3335 25.3333L34.6591 28.6473C35.3086 30.2711 35.6334 31.083 36.3106 31.5414C36.9878 31.9999 37.8622 31.9999 39.611 31.9999H44.0002" stroke="white" stroke-width="2" stroke-linecap="round" stroke-linejoin="round"/>
<path d="M22.4926 38.6666C20.689 38.6666 19.7871 38.6666 19.2268 38.0809C18.6665 37.495 18.6665 36.5522 18.6665 34.6666V25.3333C18.6665 23.4476 18.6665 22.5048 19.2268 21.919C19.7871 21.3333 20.689 21.3333 22.4926 21.3333H29.507C31.3108 21.3333 32.2125 21.3333 32.7729 21.919C33.3332 22.5048 33.3332 23.4476 33.3332 25.3333V38.6666H27.594" stroke="#6F6DB6" stroke-width="2" stroke-linecap="round" stroke-linejoin="round"/>
<path d="M25.3332 42.6666C26.8059 42.6666 27.9998 41.4727 27.9998 39.9999C27.9998 38.5272 26.8059 37.3333 25.3332 37.3333C23.8604 37.3333 22.6665 38.5272 22.6665 39.9999C22.6665 41.4727 23.8604 42.6666 25.3332 42.6666Z" stroke="white" stroke-width="2"/>
</svg>
