<svg width="64" height="64" viewBox="0 0 64 64" fill="none" xmlns="http://www.w3.org/2000/svg">
<circle cx="32" cy="32" r="31.5" fill="white" stroke="#386B4A"/>
<circle cx="32" cy="32" r="28" fill="#C8EDCC"/>
<path d="M40 51C40 49.741 40.5928 48.5554 41.6 47.8L49.6 41.8C51.0222 40.7333 52.9778 40.7333 54.4 41.8L62.4 47.8C63.4072 48.5554 64 49.741 64 51V64H40V51Z" fill="#386B4A"/>
<path d="M50.6665 55.3333C50.3932 55.3333 50.1665 55.5599 50.1665 55.8333V56.8333C50.1665 57.1066 50.3932 57.3333 50.6665 57.3333C50.9398 57.3333 51.1665 57.1066 51.1665 56.8333V55.8333C51.1665 55.5599 50.9398 55.3333 50.6665 55.3333Z" fill="white"/>
<path d="M58.6668 59.1666H58.0002V51.6532C58.0002 51.2399 57.8135 50.8532 57.4868 50.5999L52.8202 46.9732C52.3402 46.5932 51.6602 46.5932 51.1802 46.9732L46.5135 50.5999C46.1868 50.8532 46.0002 51.2399 46.0002 51.6466L45.9668 59.1666H45.3335C45.0602 59.1666 44.8335 59.3866 44.8335 59.6666C44.8335 59.9399 45.0602 60.1666 45.3335 60.1666H58.6668C58.9402 60.1666 59.1668 59.9399 59.1668 59.6666C59.1668 59.3866 58.9402 59.1666 58.6668 59.1666ZM51.0002 49.4999H53.0002C53.2735 49.4999 53.5002 49.7266 53.5002 49.9999C53.5002 50.2732 53.2735 50.4999 53.0002 50.4999H51.0002C50.7268 50.4999 50.5002 50.2732 50.5002 49.9999C50.5002 49.7266 50.7268 49.4999 51.0002 49.4999ZM55.3335 59.1666H48.6668V53.3332C48.6668 52.7799 49.1135 52.3332 49.6668 52.3332H54.3335C54.8868 52.3332 55.3335 52.7799 55.3335 53.3332V59.1666Z" fill="white"/>
<path d="M25.3335 28L31.6944 22.3135C33.4198 20.7712 34.2824 20 35.3335 20C36.3846 20 37.2472 20.7712 38.9726 22.3135L45.3335 28" stroke="white" stroke-width="2" stroke-linecap="round" stroke-linejoin="round"/>
<path d="M27.3335 26.6667V42.6667M43.3335 42.6667V26.6667" stroke="white" stroke-width="2" stroke-linecap="round" stroke-linejoin="round"/>
<path d="M20.6665 34.6666C21.7711 34.6666 22.6665 33.4727 22.6665 31.9999C22.6665 30.5272 21.7711 29.3333 20.6665 29.3333C19.5619 29.3333 18.6665 30.5272 18.6665 31.9999C18.6665 33.4727 19.5619 34.6666 20.6665 34.6666Z" stroke="#386B4A" stroke-width="2"/>
<path d="M20.6665 34.6667V42.6667" stroke="#386B4A" stroke-width="2" stroke-linecap="round"/>
<path d="M18.6665 42.6667H45.3332" stroke="white" stroke-width="2" stroke-linecap="round" stroke-linejoin="round"/>
<path d="M32 42.6667V37.333C32 36.0762 32 35.4478 32.3905 35.0573C32.7811 34.6667 33.4096 34.6667 34.6667 34.6667H36C37.2571 34.6667 37.8856 34.6667 38.2761 35.0573C38.6667 35.4478 38.6667 36.0763 38.6667 37.3334V42.6667" stroke="white" stroke-width="2" stroke-linecap="round" stroke-linejoin="round"/>
<path d="M34 30.6667H36.6667M34 26.6667H36.6667" stroke="white" stroke-width="2" stroke-linecap="round" stroke-linejoin="round"/>
</svg>
