<svg width="64" height="64" viewBox="0 0 64 64" fill="none" xmlns="http://www.w3.org/2000/svg">
<circle cx="32" cy="32" r="31.5" fill="white" stroke="#6F6DB6"/>
<circle cx="32" cy="32" r="28" fill="#CDCBFF"/>
<path d="M30.6667 26.6667V42.6667H20V27.8096" stroke="white" stroke-width="2" stroke-linecap="round" stroke-linejoin="round"/>
<path d="M30.6665 42.6667H43.9998V28" stroke="white" stroke-width="2" stroke-linecap="round" stroke-linejoin="round"/>
<path d="M21.3335 25.9999V21.3333" stroke="white" stroke-width="2" stroke-linecap="round" stroke-linejoin="round"/>
<path d="M25.344 32H25.332" stroke="white" stroke-width="2.66667" stroke-linecap="round" stroke-linejoin="round"/>
<path d="M25.3335 42.6666V37.3333" stroke="white" stroke-width="2" stroke-linecap="round" stroke-linejoin="round"/>
<path d="M36 34.6667H38.6667" stroke="white" stroke-width="2" stroke-linecap="round" stroke-linejoin="round"/>
<path d="M18.6665 29.3333L25.3332 21.3333M25.3332 21.3333L32.5521 28.5522C32.9374 28.9376 33.1302 29.1303 33.3752 29.2318C33.6202 29.3333 33.8928 29.3333 34.4377 29.3333H45.3332L40.2657 23.2523C39.4793 22.3086 39.0861 21.8368 38.5486 21.585C38.011 21.3333 37.3969 21.3333 36.1685 21.3333H25.3332Z" stroke="#6F6DB6" stroke-width="2" stroke-linecap="round" stroke-linejoin="round"/>
<rect x="40" y="40" width="24" height="24" rx="12" fill="#6F6DB6"/>
<path d="M45.6665 49.4579C45.7359 48.0581 45.9434 47.1854 46.5643 46.5645C47.1851 45.9437 48.0579 45.7361 49.4577 45.6667M58.3332 49.4579C58.2638 48.0581 58.0562 47.1854 57.4354 46.5645C56.8146 45.9437 55.9418 45.7361 54.542 45.6667M54.542 58.3334C55.9418 58.264 56.8146 58.0565 57.4354 57.4357C58.0562 56.8148 58.2638 55.942 58.3332 54.5422M49.4577 58.3334C48.0579 58.264 47.1851 58.0565 46.5643 57.4357C45.9434 56.8148 45.7359 55.942 45.6665 54.5422" stroke="white" stroke-linecap="round" stroke-linejoin="round"/>
<path d="M57.09 51.5453C57.2521 51.7483 57.3332 51.8498 57.3332 52.0001C57.3332 52.1503 57.2521 52.2518 57.09 52.4549C56.3614 53.367 54.5008 55.3334 51.9998 55.3334C49.4989 55.3334 47.6383 53.367 46.9097 52.4549C46.7476 52.2518 46.6665 52.1503 46.6665 52.0001C46.6665 51.8498 46.7476 51.7483 46.9097 51.5453C47.6383 50.6331 49.4989 48.6667 51.9998 48.6667C54.5008 48.6667 56.3614 50.6331 57.09 51.5453Z" stroke="white"/>
<path d="M53.3332 52.0001C53.3332 51.2637 52.7362 50.6667 51.9998 50.6667C51.2634 50.6667 50.6665 51.2637 50.6665 52.0001C50.6665 52.7365 51.2634 53.3334 51.9998 53.3334C52.7362 53.3334 53.3332 52.7365 53.3332 52.0001Z" stroke="white"/>
</svg>
