<svg width="64" height="64" viewBox="0 0 64 64" fill="none" xmlns="http://www.w3.org/2000/svg">
<circle cx="32" cy="32" r="31.5" fill="white" stroke="#30428E"/>
<circle cx="32" cy="32" r="28" fill="#B8D6FF"/>
<rect x="40" y="40" width="24" height="24" rx="12" fill="#30428E"/>
<path d="M52.0002 58.6666C55.6821 58.6666 58.6668 55.6818 58.6668 51.9999C58.6668 48.318 55.6821 45.3333 52.0002 45.3333C48.3183 45.3333 45.3335 48.318 45.3335 51.9999C45.3335 55.6818 48.3183 58.6666 52.0002 58.6666Z" stroke="white" stroke-linecap="round" stroke-linejoin="round"/>
<path d="M53.3335 47.8252C53.3335 47.8252 52.5901 48.1586 52.068 47.9043C51.4311 47.594 50.7996 46.2974 52.0611 45.3333" stroke="white" stroke-linecap="round" stroke-linejoin="round"/>
<path d="M49.3395 50H49.3335M54.6668 50H54.6608" stroke="white" stroke-width="1.33333" stroke-linecap="round" stroke-linejoin="round"/>
<path d="M49.3335 54C49.9416 54.8096 50.9097 55.3333 52.0002 55.3333C53.0906 55.3333 54.0588 54.8096 54.6668 54" stroke="white" stroke-linecap="round" stroke-linejoin="round"/>
<path d="M30.6665 36H33.3332" stroke="white" stroke-width="2" stroke-linecap="round" stroke-linejoin="round"/>
<path d="M32 40V45.3333" stroke="white" stroke-width="2"/>
<path d="M26.6665 45.3333H37.3332" stroke="white" stroke-width="2" stroke-linecap="round"/>
<path d="M27.9998 18.668C24.4992 18.6791 22.6085 18.783 21.2251 19.7517C20.6517 20.1532 20.153 20.6518 19.7516 21.2252C18.6665 22.7748 18.6665 24.961 18.6665 29.3333C18.6665 33.7056 18.6665 35.8917 19.7516 37.4415C20.153 38.0148 20.6517 38.5135 21.2251 38.9149C22.7747 40 24.9609 40 29.3332 40H34.6665C39.0388 40 41.2249 40 42.7746 38.9149C43.348 38.5135 43.8466 38.0148 44.2481 37.4415C45.2168 36.058 45.3206 34.1672 45.3318 30.6667" stroke="white" stroke-width="2" stroke-linecap="round"/>
<path d="M42 21.5285L42.084 21.4679C43.4944 20.4495 44.1997 19.9404 44.7665 20.1862C45.3333 20.4321 45.3333 21.2471 45.3333 22.8773V23.7895C45.3333 25.4197 45.3333 26.2347 44.7665 26.4806C44.1997 26.7265 43.4944 26.2173 42.084 25.1989L42 25.1383M36.6667 28.0001H37.3333C39.5332 28.0001 40.6332 28.0001 41.3165 27.4021C42 26.8041 42 25.8417 42 23.9167V22.7501C42 20.8252 42 19.8627 41.3165 19.2647C40.6332 18.6667 39.5332 18.6667 37.3333 18.6667H36.6667C34.4668 18.6667 33.3668 18.6667 32.6835 19.2647C32 19.8627 32 20.8252 32 22.7501V23.9167C32 25.8417 32 26.8041 32.6835 27.4021C33.3668 28.0001 34.4668 28.0001 36.6667 28.0001Z" stroke="#30428E" stroke-width="2" stroke-linecap="round"/>
</svg>
