<svg width="150" height="150" viewBox="0 0 150 150" fill="none" xmlns="http://www.w3.org/2000/svg">
<g filter="url(#filter0_d_2026_5653)">
<circle cx="71" cy="65" r="45" fill="#6F6DB6"/>
</g>
<path d="M73.5014 69.5099V57.8093H57.0356V69.3566L61.9595 69.4024V63.5638C61.9552 63.49 61.9656 63.4161 61.9902 63.3464C62.0147 63.2767 62.0528 63.2126 62.1024 63.1578C62.1519 63.103 62.2119 63.0586 62.2788 63.0272C62.3457 62.9958 62.4181 62.978 62.4919 62.9749H68.305C68.4606 62.9791 68.6089 63.0422 68.7198 63.1515C68.8307 63.2609 68.8959 63.4082 68.9023 63.5638V69.4673L73.5014 69.5099Z" fill="white"/>
<path d="M65.3651 48L55.3374 56.6796H75.3566L65.3651 48Z" fill="white"/>
<g filter="url(#filter1_d_2026_5653)">
<path d="M67.7698 69.4566V64.1058H63.0845V69.4141L67.7698 69.4566Z" fill="white"/>
</g>
<path d="M86.4585 78.8379C86.4225 78.2589 86.218 77.703 85.87 77.2388C85.522 76.7746 85.0458 76.4224 84.5001 76.2255C83.9543 76.0286 83.3629 75.9957 82.7987 76.1308C82.2345 76.2659 81.7222 76.5632 81.3248 76.9859C80.9275 77.4086 80.6625 77.9383 80.5625 78.5098C80.4626 79.0813 80.532 79.6695 80.7622 80.202C80.9925 80.7346 81.3735 81.1881 81.8583 81.5067C82.3431 81.8253 82.9106 81.9951 83.4907 81.9952C84.3027 81.9693 85.0713 81.6223 85.6277 81.0304C86.1841 80.4384 86.4829 79.6499 86.4585 78.8379Z" fill="white"/>
<path d="M53 78.3109H54.4535C54.5611 77.3019 55.0329 76.3668 55.7806 75.6807C56.5282 74.9946 57.5003 74.6047 58.5149 74.584C59.5294 74.6045 60.5017 74.9943 61.2494 75.6804C61.9971 76.3666 62.4688 77.3019 62.5762 78.3109H77.5374V73.6256H53V78.3109Z" fill="white"/>
<path d="M78.668 73.0378V78.3119H79.4293C79.518 77.2961 79.9842 76.3503 80.736 75.6613C81.4877 74.9724 82.4704 74.5902 83.4902 74.5902C84.5099 74.5902 85.4926 74.9724 86.2443 75.6613C86.9961 76.3503 87.4623 77.2961 87.551 78.3119H88.6776V69.4332H78.668V73.0378Z" fill="white"/>
<path d="M78.668 68.3023H88.3325L85.4479 62.7332H78.668V68.3023Z" fill="white"/>
<path d="M58.5147 75.6807C57.8821 75.6416 57.2524 75.7936 56.7072 76.1167C56.162 76.4399 55.7265 76.9194 55.4571 77.4931C55.1877 78.0668 55.0969 78.7082 55.1965 79.3341C55.296 79.96 55.5814 80.5416 56.0154 81.0034C56.4495 81.4652 57.0123 81.7859 57.6309 81.924C58.2494 82.062 58.8952 82.011 59.4845 81.7777C60.0737 81.5443 60.5792 81.1392 60.9355 80.6151C61.2918 80.0909 61.4823 79.4718 61.4824 78.838C61.506 78.0262 61.2069 77.2381 60.6507 76.6464C60.0944 76.0546 59.3264 75.7074 58.5147 75.6807Z" fill="white"/>
<defs>
<filter id="filter0_d_2026_5653" x="0" y="0" width="150" height="150" filterUnits="userSpaceOnUse" color-interpolation-filters="sRGB">
<feFlood flood-opacity="0" result="BackgroundImageFix"/>
<feColorMatrix in="SourceAlpha" type="matrix" values="0 0 0 0 0 0 0 0 0 0 0 0 0 0 0 0 0 0 127 0" result="hardAlpha"/>
<feOffset dx="4" dy="10"/>
<feGaussianBlur stdDeviation="15"/>
<feComposite in2="hardAlpha" operator="out"/>
<feColorMatrix type="matrix" values="0 0 0 0 0.435294 0 0 0 0 0.427451 0 0 0 0 0.713726 0 0 0 0.4 0"/>
<feBlend mode="normal" in2="BackgroundImageFix" result="effect1_dropShadow_2026_5653"/>
<feBlend mode="normal" in="SourceGraphic" in2="effect1_dropShadow_2026_5653" result="shape"/>
</filter>
<filter id="filter1_d_2026_5653" x="60.9548" y="64.1058" width="8.94495" height="9.6103" filterUnits="userSpaceOnUse" color-interpolation-filters="sRGB">
<feFlood flood-opacity="0" result="BackgroundImageFix"/>
<feColorMatrix in="SourceAlpha" type="matrix" values="0 0 0 0 0 0 0 0 0 0 0 0 0 0 0 0 0 0 127 0" result="hardAlpha"/>
<feOffset dy="2.1297"/>
<feGaussianBlur stdDeviation="1.06485"/>
<feColorMatrix type="matrix" values="0 0 0 0 0 0 0 0 0 0 0 0 0 0 0 0 0 0 0.161 0"/>
<feBlend mode="normal" in2="BackgroundImageFix" result="effect1_dropShadow_2026_5653"/>
<feBlend mode="normal" in="SourceGraphic" in2="effect1_dropShadow_2026_5653" result="shape"/>
</filter>
</defs>
</svg>
