<svg width="150" height="150" viewBox="0 0 150 150" fill="none" xmlns="http://www.w3.org/2000/svg">
<g filter="url(#filter0_d_2026_5629)">
<circle cx="71" cy="65" r="45" fill="#386B4A"/>
</g>
<path d="M91.5241 66.4574L82.9931 57.9274V52.3024C82.9931 51.9655 82.8593 51.6425 82.6212 51.4043C82.383 51.1662 82.06 51.0324 81.7231 51.0324C81.3863 51.0324 81.0633 51.1662 80.8251 51.4043C80.5869 51.6425 80.4531 51.9655 80.4531 52.3024V55.3904L74.4351 49.3714C74.1972 49.1336 73.8745 49 73.5381 49C73.2017 49 72.8791 49.1336 72.6411 49.3714L60.9941 61.0194C61.9342 61.1822 62.8462 61.4789 63.7021 61.9004L73.5401 52.0634L89.7311 68.2534C89.9698 68.4911 90.2932 68.6243 90.6301 68.6237C90.967 68.623 91.2899 68.4886 91.5276 68.2499C91.7654 68.0112 91.8986 67.6878 91.898 67.3509C91.8973 67.014 91.7628 66.6911 91.5241 66.4534V66.4574Z" fill="white"/>
<path d="M87.8941 67.9154L74.4381 54.4584C74.3204 54.3404 74.1806 54.2468 74.0267 54.1829C73.8728 54.1191 73.7078 54.0862 73.5411 54.0862C73.3745 54.0862 73.2095 54.1191 73.0556 54.1829C72.9016 54.2468 72.7618 54.3404 72.6441 54.4584L64.6611 62.4424C66.7245 63.7498 68.2401 65.7649 68.924 68.1098C69.6079 70.4548 69.4131 72.9687 68.3761 75.1804L70.6151 77.4194C70.6851 77.4884 70.7491 77.5614 70.8151 77.6374C71.2535 77.095 71.4928 76.4188 71.4931 75.7214V70.8984C71.4945 70.334 71.7057 69.7902 72.0857 69.3729C72.4657 68.9556 72.9873 68.6945 73.5491 68.6404C74.1109 68.6945 74.6326 68.9556 75.0126 69.3729C75.3925 69.7902 75.6038 70.334 75.6051 70.8984V75.7254C75.607 76.5388 75.9309 77.3183 76.5061 77.8934C77.0812 78.4686 77.8608 78.7925 78.6741 78.7944H85.2411C86.0535 78.7915 86.8316 78.4669 87.4052 77.8918C87.9788 77.3166 88.3013 76.5377 88.3021 75.7254V69.1534C88.3021 68.958 88.283 68.7631 88.2451 68.5714C88.1945 68.3232 88.0725 68.0952 87.8941 67.9154Z" fill="white"/>
<path d="M66.1361 75.4874C67.2579 73.802 67.7216 71.7634 67.4393 69.7586C67.157 67.7538 66.1482 65.9226 64.6045 64.6126C63.0609 63.3026 61.0899 62.6052 59.0659 62.6528C57.0419 62.7004 55.1058 63.4896 53.6255 64.8707C52.1451 66.2518 51.2235 68.1284 51.0356 70.1442C50.8478 72.1601 51.4069 74.1747 52.6066 75.8054C53.8064 77.4362 55.5633 78.5696 57.5437 78.9902C59.5241 79.4109 61.59 79.0896 63.3491 78.0874L66.6491 81.3874C66.8258 81.5641 67.0355 81.7042 67.2664 81.7999C67.4972 81.8955 67.7447 81.9447 67.9946 81.9447C68.2444 81.9447 68.4919 81.8955 68.7227 81.7999C68.9536 81.7042 69.1634 81.5641 69.3401 81.3874C69.5167 81.2107 69.6569 81.0009 69.7525 80.7701C69.8482 80.5392 69.8974 80.2918 69.8974 80.0419C69.8974 79.792 69.8482 79.5446 69.7525 79.3137C69.6569 79.0828 69.5167 78.8731 69.3401 78.6964L66.1361 75.4874ZM59.2751 76.6284C58.1455 76.6284 57.0414 76.2934 56.1022 75.6659C55.163 75.0384 54.431 74.1464 53.9988 73.1029C53.5665 72.0593 53.4534 70.911 53.6738 69.8032C53.8942 68.6954 54.4381 67.6778 55.2368 66.8791C56.0355 66.0804 57.0531 65.5365 58.1609 65.3161C59.2687 65.0958 60.417 65.2088 61.4606 65.6411C62.5041 66.0734 63.396 66.8053 64.0236 67.7445C64.6511 68.6837 64.9861 69.7878 64.9861 70.9174C64.9845 72.4315 64.3823 73.8832 63.3116 74.9539C62.2409 76.0246 60.7892 76.6268 59.2751 76.6284Z" fill="white"/>
<defs>
<filter id="filter0_d_2026_5629" x="0" y="0" width="150" height="150" filterUnits="userSpaceOnUse" color-interpolation-filters="sRGB">
<feFlood flood-opacity="0" result="BackgroundImageFix"/>
<feColorMatrix in="SourceAlpha" type="matrix" values="0 0 0 0 0 0 0 0 0 0 0 0 0 0 0 0 0 0 127 0" result="hardAlpha"/>
<feOffset dx="4" dy="10"/>
<feGaussianBlur stdDeviation="15"/>
<feComposite in2="hardAlpha" operator="out"/>
<feColorMatrix type="matrix" values="0 0 0 0 0 0 0 0 0 0.596078 0 0 0 0 0.74902 0 0 0 0.4 0"/>
<feBlend mode="normal" in2="BackgroundImageFix" result="effect1_dropShadow_2026_5629"/>
<feBlend mode="normal" in="SourceGraphic" in2="effect1_dropShadow_2026_5629" result="shape"/>
</filter>
</defs>
</svg>
