<svg width="150" height="150" viewBox="0 0 150 150" fill="none" xmlns="http://www.w3.org/2000/svg">
<g filter="url(#filter0_d_2026_5640)">
<circle cx="71" cy="65" r="45" fill="#30428E"/>
</g>
<path d="M67.3906 57.7193V64.9351H70.3575V61.5976C70.3575 61.3025 70.4747 61.0194 70.6834 60.8107C70.8921 60.602 71.1752 60.4848 71.4703 60.4848C71.7655 60.4848 72.0486 60.602 72.2573 60.8107C72.466 61.0194 72.5832 61.3025 72.5832 61.5976V64.9351H75.5501V57.7193L71.4703 54.9999L67.3906 57.7193Z" fill="white"/>
<path d="M76.8198 73.9106C79.9457 72.6662 82.5401 70.3713 84.1569 67.4206C85.7736 64.47 86.3114 61.0482 85.6779 57.7439C85.0443 54.4396 83.279 51.4594 80.6856 49.316C78.0922 47.1726 74.8329 46 71.4684 46C68.1039 46 64.8445 47.1726 62.2511 49.316C59.6577 51.4594 57.8924 54.4396 57.2589 57.7439C56.6253 61.0482 57.1631 64.47 58.7799 67.4206C60.3966 70.3713 62.9911 72.6662 66.117 73.9106L68.7086 79.5497H74.2258L76.8198 73.9106ZM62.9395 66.0458C62.9395 65.7506 63.0567 65.4676 63.2654 65.2589C63.4741 65.0502 63.7572 64.9329 64.0524 64.9329H65.1652V59.2041L64.6692 59.5344C64.4236 59.6959 64.1241 59.7537 63.8361 59.6952C63.548 59.6367 63.2948 59.4666 63.1317 59.2221C62.9686 58.9775 62.9089 58.6784 62.9656 58.39C63.0223 58.1015 63.1908 57.8473 63.4344 57.6827L65.9064 56.0335V52.6961C65.9064 52.4009 66.0236 52.1179 66.2323 51.9092C66.441 51.7005 66.7241 51.5832 67.0192 51.5832C67.3144 51.5832 67.5974 51.7005 67.8061 51.9092C68.0148 52.1179 68.1321 52.4009 68.1321 52.6961V54.5512L70.8527 52.7375C71.0355 52.6156 71.2503 52.5505 71.4701 52.5505C71.6898 52.5505 71.9047 52.6156 72.0875 52.7375L79.5047 57.6861C79.6272 57.7668 79.7327 57.8708 79.8149 57.9924C79.8971 58.1139 79.9544 58.2505 79.9836 58.3943C80.0128 58.5381 80.0133 58.6863 79.985 58.8302C79.9568 58.9742 79.9003 59.1112 79.8189 59.2333C79.7375 59.3553 79.6327 59.4601 79.5107 59.5415C79.3886 59.623 79.2517 59.6795 79.1077 59.7078C78.9637 59.7361 78.8156 59.7356 78.6718 59.7065C78.528 59.6773 78.3914 59.62 78.2698 59.5378L77.7738 59.2075V64.9398H78.8867C79.1818 64.9398 79.4649 65.0571 79.6736 65.2658C79.8823 65.4745 79.9995 65.7576 79.9995 66.0527C79.9995 66.3478 79.8823 66.6309 79.6736 66.8396C79.4649 67.0483 79.1818 67.1656 78.8867 67.1656H64.0524C63.9056 67.1656 63.7604 67.1366 63.6249 67.0802C63.4894 67.0238 63.3664 66.9412 63.263 66.8372C63.1596 66.7331 63.0777 66.6096 63.0222 66.4738C62.9667 66.338 62.9386 66.1925 62.9395 66.0458Z" fill="white"/>
<path d="M80.3712 81.7743H62.5689C62.2738 81.7743 61.9907 81.8915 61.782 82.1002C61.5733 82.3089 61.4561 82.592 61.4561 82.8872C61.4561 83.1823 61.5733 83.4654 61.782 83.6741C61.9907 83.8828 62.2738 84 62.5689 84H80.3712C80.6664 84 80.9494 83.8828 81.1581 83.6741C81.3668 83.4654 81.4841 83.1823 81.4841 82.8872C81.4841 82.592 81.3668 82.3089 81.1581 82.1002C80.9494 81.8915 80.6664 81.7743 80.3712 81.7743Z" fill="white"/>
<defs>
<filter id="filter0_d_2026_5640" x="0" y="0" width="150" height="150" filterUnits="userSpaceOnUse" color-interpolation-filters="sRGB">
<feFlood flood-opacity="0" result="BackgroundImageFix"/>
<feColorMatrix in="SourceAlpha" type="matrix" values="0 0 0 0 0 0 0 0 0 0 0 0 0 0 0 0 0 0 127 0" result="hardAlpha"/>
<feOffset dx="4" dy="10"/>
<feGaussianBlur stdDeviation="15"/>
<feComposite in2="hardAlpha" operator="out"/>
<feColorMatrix type="matrix" values="0 0 0 0 0.188235 0 0 0 0 0.258824 0 0 0 0 0.556863 0 0 0 0.4 0"/>
<feBlend mode="normal" in2="BackgroundImageFix" result="effect1_dropShadow_2026_5640"/>
<feBlend mode="normal" in="SourceGraphic" in2="effect1_dropShadow_2026_5640" result="shape"/>
</filter>
</defs>
</svg>
